<svg 
     version="1.1" 
     id="APSA_logo_stacked"
     xmlns="http://www.w3.org/2000/svg" 
     xmlns:xlink="http://www.w3.org/1999/xlink" 
     width="200px" height="72px" 
     viewBox="0 0 200 72" preserveAspectRatio="none"> 
   <g> 
<path id="text" fill="#FFFFFF" d="M2.4,56.4v-1c0.8,0.4,1.4,0.5,1.9,0.5c0.4,0,0.7-0.1,0.9-0.3c0.2-0.2,0.4-0.5,0.4-0.8
	c0-0.3-0.1-0.5-0.2-0.7c-0.2-0.2-0.4-0.4-0.9-0.6l-0.5-0.3c-0.6-0.3-1-0.7-1.3-1c-0.2-0.3-0.4-0.6-0.4-1c0-0.5,0.2-1,0.6-1.3
	c0.4-0.3,0.9-0.5,1.5-0.5c0.5,0,1.1,0.1,1.7,0.3v0.9c-0.7-0.3-1.3-0.4-1.6-0.4c-0.3,0-0.6,0.1-0.8,0.3c-0.2,0.2-0.3,0.4-0.3,0.7
	c0,0.2,0.1,0.4,0.2,0.6c0.2,0.2,0.5,0.4,0.9,0.6l0.5,0.3c0.6,0.3,1,0.7,1.3,1c0.2,0.3,0.4,0.7,0.4,1.1c0,0.6-0.2,1.1-0.7,1.5
	c-0.4,0.4-1,0.6-1.8,0.6C3.8,56.7,3.2,56.6,2.4,56.4z M8.1,50.5v-0.9H9v0.9H8.1z M8.1,56.5v-5.1H9v5.1H8.1z M10.9,56.5v-5.1h0.9v1
	c0.5-0.7,1-1.1,1.7-1.1c0.7,0,1.2,0.4,1.4,1.1c0.4-0.7,1-1.1,1.7-1.1c0.5,0,0.8,0.1,1.1,0.4c0.2,0.3,0.4,0.6,0.4,1.1v3.7h-0.9v-3.6
	c0-0.6-0.2-0.9-0.7-0.9c-0.5,0-1,0.3-1.5,1v3.4H14v-3.6c0-0.6-0.2-0.9-0.7-0.9c-0.5,0-1,0.3-1.5,1v3.4H10.9z M21.9,56.6
	c-0.7,0-1.3-0.2-1.8-0.7c-0.4-0.5-0.7-1.1-0.7-1.9c0-0.8,0.2-1.5,0.7-2c0.4-0.5,1-0.7,1.8-0.7c0.8,0,1.3,0.2,1.8,0.7
	c0.4,0.5,0.7,1.1,0.7,1.9c0,0.8-0.2,1.5-0.7,2C23.3,56.4,22.7,56.6,21.9,56.6z M21.9,55.9c1,0,1.5-0.7,1.5-2c0-1.3-0.5-2-1.5-2
	c-1,0-1.5,0.7-1.5,2c0,0.6,0.1,1.1,0.4,1.5C21.1,55.7,21.5,55.9,21.9,55.9z M25.8,56.5v-5.1h0.9v1c0.5-0.7,1.1-1.1,1.8-1.1
	c0.4,0,0.8,0.1,1.1,0.4c0.3,0.3,0.4,0.7,0.4,1.1v3.7h-0.9v-3.4c0-0.4-0.1-0.7-0.2-0.8c-0.1-0.2-0.3-0.2-0.6-0.2
	c-0.6,0-1.1,0.4-1.6,1.1v3.3H25.8z M34.8,56.5v-7h3.9v0.7h-2.9v2.3h2.4v0.7h-2.4v3.2H34.8z M40,56.5v-5.1H41v1
	c0.4-0.7,0.9-1.1,1.6-1.1c0.1,0,0.2,0,0.3,0v0.9c-0.2-0.1-0.3-0.1-0.4-0.1c-0.6,0-1.1,0.3-1.5,1v3.4H40z M46.6,55.9
	c-0.6,0.5-1.1,0.8-1.6,0.8c-0.4,0-0.8-0.1-1.1-0.4c-0.3-0.3-0.4-0.6-0.4-1c0-0.6,0.2-1,0.7-1.3c0.5-0.3,1.1-0.4,2-0.4h0.2v-0.6
	c0-0.6-0.3-0.9-0.9-0.9c-0.5,0-1,0.2-1.6,0.5v-0.8c0.6-0.3,1.2-0.4,1.8-0.4c0.6,0,1,0.1,1.3,0.4c0.3,0.3,0.4,0.7,0.4,1.2v2.3
	c0,0.5,0.2,0.8,0.5,0.8c0,0,0.1,0,0.2,0l0.1,0.5c-0.2,0.1-0.4,0.2-0.7,0.2C47,56.6,46.7,56.4,46.6,55.9z M46.5,55.3V54l-0.3,0
	c-0.5,0-0.9,0.1-1.2,0.3c-0.3,0.2-0.5,0.4-0.5,0.8c0,0.2,0.1,0.4,0.2,0.6c0.2,0.2,0.3,0.2,0.6,0.2C45.7,55.9,46.1,55.7,46.5,55.3z
	 M49.1,56.3v-0.9c0.6,0.3,1.1,0.5,1.6,0.5c0.3,0,0.5-0.1,0.7-0.2c0.2-0.1,0.3-0.3,0.3-0.5c0-0.3-0.2-0.6-0.7-0.8l-0.5-0.2
	c-0.8-0.3-1.2-0.8-1.2-1.4c0-0.4,0.2-0.8,0.5-1.1c0.3-0.3,0.7-0.4,1.3-0.4c0.3,0,0.6,0,1.1,0.1l0.2,0v0.8C51.7,52,51.3,52,50.9,52
	c-0.6,0-0.9,0.2-0.9,0.7c0,0.3,0.2,0.5,0.7,0.7l0.4,0.2c0.5,0.2,0.9,0.4,1.1,0.7c0.2,0.2,0.3,0.5,0.3,0.9c0,0.4-0.2,0.8-0.5,1.1
	c-0.4,0.3-0.8,0.4-1.4,0.4C50.2,56.6,49.7,56.5,49.1,56.3z M58,56.3c-0.6,0.2-1.2,0.3-1.6,0.3c-0.8,0-1.4-0.3-1.8-0.8
	c-0.5-0.5-0.7-1.1-0.7-1.9c0-0.8,0.2-1.4,0.6-1.9c0.4-0.5,1-0.7,1.6-0.7c0.6,0,1.1,0.2,1.4,0.7c0.3,0.4,0.5,1.1,0.5,1.9l0,0.3h-3.2
	c0.1,1.2,0.7,1.8,1.8,1.8c0.4,0,0.9-0.1,1.4-0.3V56.3z M54.8,53.4h2.3c0-1-0.4-1.4-1.1-1.4C55.3,52,54.9,52.4,54.8,53.4z M59.6,56.5
	v-5.1h0.9v1c0.4-0.7,0.9-1.1,1.6-1.1c0.1,0,0.2,0,0.3,0v0.9c-0.2-0.1-0.3-0.1-0.4-0.1c-0.6,0-1.1,0.3-1.5,1v3.4H59.6z M66.5,49.5h1
	v4.4c0,0.7,0.1,1.2,0.4,1.5c0.3,0.3,0.7,0.5,1.2,0.5c0.6,0,0.9-0.2,1.2-0.5c0.2-0.3,0.3-0.8,0.3-1.5v-4.4h0.9v4.4
	c0,0.6-0.1,1.1-0.2,1.4c-0.1,0.3-0.3,0.6-0.6,0.9c-0.4,0.3-0.9,0.5-1.6,0.5c-0.9,0-1.5-0.2-1.9-0.7c-0.4-0.4-0.6-1.1-0.6-2.1V49.5z
	 M73.3,56.5v-5.1h0.9v1c0.5-0.7,1.1-1.1,1.8-1.1c0.4,0,0.8,0.1,1.1,0.4c0.3,0.3,0.4,0.7,0.4,1.1v3.7h-0.9v-3.4
	c0-0.4-0.1-0.7-0.2-0.8c-0.1-0.2-0.3-0.2-0.6-0.2c-0.6,0-1.1,0.4-1.6,1.1v3.3H73.3z M79.3,50.5v-0.9h0.9v0.9H79.3z M79.3,56.5v-5.1
	h0.9v5.1H79.3z M83.1,56.5l-1.9-5.1h0.9l1.5,4l1.6-4h0.9l-2,5.1H83.1z M90.8,56.3c-0.6,0.2-1.2,0.3-1.6,0.3c-0.8,0-1.4-0.3-1.8-0.8
	c-0.5-0.5-0.7-1.1-0.7-1.9c0-0.8,0.2-1.4,0.6-1.9c0.4-0.5,1-0.7,1.6-0.7c0.6,0,1.1,0.2,1.4,0.7c0.3,0.4,0.5,1.1,0.5,1.9l0,0.3h-3.2
	c0.1,1.2,0.7,1.8,1.8,1.8c0.4,0,0.9-0.1,1.4-0.3V56.3z M87.7,53.4h2.3c0-1-0.4-1.4-1.1-1.4C88.1,52,87.7,52.4,87.7,53.4z M92.5,56.5
	v-5.1h0.9v1c0.4-0.7,0.9-1.1,1.6-1.1c0.1,0,0.2,0,0.3,0v0.9c-0.2-0.1-0.3-0.1-0.4-0.1c-0.6,0-1.1,0.3-1.5,1v3.4H92.5z M96.2,56.3
	v-0.9c0.6,0.3,1.1,0.5,1.6,0.5c0.3,0,0.5-0.1,0.7-0.2c0.2-0.1,0.3-0.3,0.3-0.5c0-0.3-0.2-0.6-0.7-0.8l-0.5-0.2
	c-0.8-0.3-1.2-0.8-1.2-1.4c0-0.4,0.2-0.8,0.5-1.1c0.3-0.3,0.7-0.4,1.3-0.4c0.3,0,0.6,0,1.1,0.1l0.2,0v0.8C98.8,52,98.3,52,98,52
	c-0.6,0-0.9,0.2-0.9,0.7c0,0.3,0.2,0.5,0.7,0.7l0.4,0.2c0.5,0.2,0.9,0.4,1.1,0.7c0.2,0.2,0.3,0.5,0.3,0.9c0,0.4-0.2,0.8-0.5,1.1
	c-0.4,0.3-0.8,0.4-1.4,0.4C97.3,56.6,96.8,56.5,96.2,56.3z M101.3,50.5v-0.9h0.9v0.9H101.3z M101.3,56.5v-5.1h0.9v5.1H101.3z
	 M106.4,56.5c-0.3,0.1-0.5,0.1-0.7,0.1c-0.5,0-0.8-0.1-1.1-0.4c-0.3-0.3-0.4-0.6-0.4-1.1v-3h-0.6v-0.7h0.6v-0.9l0.9-0.1v1h1.3v0.7
	h-1.3v2.8c0,0.7,0.3,1,0.9,1c0.1,0,0.3,0,0.4-0.1V56.5z M108,58.4l0.8-1.9l-2-5.1h1l1.5,3.9l1.6-3.9h0.9l-2.8,7H108z M115,56.5
	l2.8-7h1l2.7,7h-1.1l-0.8-1.9h-3l-0.8,1.9H115z M116.9,53.8h2.4l-1.2-3L116.9,53.8z M125.8,56.5v-1c-0.4,0.7-0.9,1.1-1.7,1.1
	c-0.6,0-1.1-0.2-1.5-0.7c-0.4-0.4-0.5-1.1-0.5-1.8c0-0.9,0.2-1.5,0.6-2.1c0.4-0.5,0.9-0.8,1.6-0.8c0.6,0,1.1,0.2,1.5,0.7v-2.9h0.9
	v7.4H125.8z M125.8,52.6c-0.5-0.4-0.9-0.6-1.4-0.6c-0.4,0-0.8,0.2-1,0.5c-0.2,0.4-0.3,0.9-0.3,1.5c0,1.2,0.4,1.8,1.2,1.8
	c0.5,0,1-0.3,1.5-0.8V52.6z M128.6,56.5v-5.1h0.9v1c0.5-0.7,1-1.1,1.7-1.1c0.7,0,1.2,0.4,1.4,1.1c0.4-0.7,1-1.1,1.7-1.1
	c0.5,0,0.8,0.1,1.1,0.4c0.2,0.3,0.4,0.6,0.4,1.1v3.7h-0.9v-3.6c0-0.6-0.2-0.9-0.7-0.9c-0.5,0-1,0.3-1.5,1v3.4h-0.9v-3.6
	c0-0.6-0.2-0.9-0.7-0.9c-0.5,0-1,0.3-1.5,1v3.4H128.6z M137.6,50.5v-0.9h0.9v0.9H137.6z M137.6,56.5v-5.1h0.9v5.1H137.6z
	 M140.4,56.5v-5.1h0.9v1c0.5-0.7,1.1-1.1,1.8-1.1c0.4,0,0.8,0.1,1.1,0.4c0.3,0.3,0.4,0.7,0.4,1.1v3.7h-0.9v-3.4
	c0-0.4-0.1-0.7-0.2-0.8c-0.1-0.2-0.3-0.2-0.6-0.2c-0.6,0-1.1,0.4-1.6,1.1v3.3H140.4z M146.3,50.5v-0.9h0.9v0.9H146.3z M146.3,56.5
	v-5.1h0.9v5.1H146.3z M148.9,56.3v-0.9c0.6,0.3,1.1,0.5,1.6,0.5c0.3,0,0.5-0.1,0.7-0.2c0.2-0.1,0.3-0.3,0.3-0.5
	c0-0.3-0.2-0.6-0.7-0.8l-0.5-0.2c-0.8-0.3-1.2-0.8-1.2-1.4c0-0.4,0.2-0.8,0.5-1.1c0.3-0.3,0.7-0.4,1.3-0.4c0.3,0,0.6,0,1.1,0.1
	l0.2,0v0.8c-0.5-0.2-0.9-0.2-1.2-0.2c-0.6,0-0.9,0.2-0.9,0.7c0,0.3,0.2,0.5,0.7,0.7l0.4,0.2c0.5,0.2,0.9,0.4,1.1,0.7
	c0.2,0.2,0.3,0.5,0.3,0.9c0,0.4-0.2,0.8-0.5,1.1c-0.4,0.3-0.8,0.4-1.4,0.4C150.1,56.6,149.5,56.5,148.9,56.3z M156.3,56.5
	c-0.3,0.1-0.5,0.1-0.7,0.1c-0.5,0-0.8-0.1-1.1-0.4c-0.3-0.3-0.4-0.6-0.4-1.1v-3h-0.6v-0.7h0.6v-0.9l0.9-0.1v1h1.3v0.7H155v2.8
	c0,0.7,0.3,1,0.9,1c0.1,0,0.3,0,0.4-0.1V56.5z M157.7,56.5v-5.1h0.9v1c0.4-0.7,0.9-1.1,1.6-1.1c0.1,0,0.2,0,0.3,0v0.9
	c-0.2-0.1-0.3-0.1-0.4-0.1c-0.6,0-1.1,0.3-1.5,1v3.4H157.7z M164.2,55.9c-0.6,0.5-1.1,0.8-1.6,0.8c-0.4,0-0.8-0.1-1.1-0.4
	c-0.3-0.3-0.4-0.6-0.4-1c0-0.6,0.2-1,0.7-1.3c0.5-0.3,1.1-0.4,2-0.4h0.2v-0.6c0-0.6-0.3-0.9-0.9-0.9c-0.5,0-1,0.2-1.6,0.5v-0.8
	c0.6-0.3,1.2-0.4,1.8-0.4c0.6,0,1,0.1,1.3,0.4c0.3,0.3,0.4,0.7,0.4,1.2v2.3c0,0.5,0.2,0.8,0.5,0.8c0,0,0.1,0,0.2,0l0.1,0.5
	c-0.2,0.1-0.4,0.2-0.7,0.2C164.6,56.6,164.4,56.4,164.2,55.9z M164.1,55.3V54l-0.3,0c-0.5,0-0.9,0.1-1.2,0.3
	c-0.3,0.2-0.5,0.4-0.5,0.8c0,0.2,0.1,0.4,0.2,0.6c0.2,0.2,0.3,0.2,0.6,0.2C163.3,55.9,163.7,55.7,164.1,55.3z M169.2,56.5
	c-0.3,0.1-0.5,0.1-0.7,0.1c-0.5,0-0.8-0.1-1.1-0.4c-0.3-0.3-0.4-0.6-0.4-1.1v-3h-0.6v-0.7h0.6v-0.9l0.9-0.1v1h1.3v0.7h-1.3v2.8
	c0,0.7,0.3,1,0.9,1c0.1,0,0.3,0,0.4-0.1V56.5z M170.5,50.5v-0.9h0.9v0.9H170.5z M170.5,56.5v-5.1h0.9v5.1H170.5z M174.4,56.5
	l-1.9-5.1h0.9l1.5,4l1.6-4h0.9l-2,5.1H174.4z M182.1,56.3c-0.6,0.2-1.2,0.3-1.6,0.3c-0.8,0-1.4-0.3-1.8-0.8
	c-0.5-0.5-0.7-1.1-0.7-1.9c0-0.8,0.2-1.4,0.6-1.9c0.4-0.5,1-0.7,1.6-0.7c0.6,0,1.1,0.2,1.4,0.7c0.3,0.4,0.5,1.1,0.5,1.9l0,0.3h-3.2
	c0.1,1.2,0.7,1.8,1.8,1.8c0.4,0,0.9-0.1,1.4-0.3V56.3z M178.9,53.4h2.3c0-1-0.4-1.4-1.1-1.4C179.4,52,179,52.4,178.9,53.4z
	 M6.8,70.5l-0.3-0.4c-0.5,0.4-1.1,0.6-1.8,0.6c-0.7,0-1.3-0.2-1.8-0.6c-0.5-0.4-0.7-1-0.7-1.6c0-1.1,0.6-1.8,1.7-2.2
	c-0.3-0.6-0.5-1-0.5-1.4c0-0.4,0.2-0.8,0.5-1c0.3-0.3,0.7-0.4,1.2-0.4c0.5,0,0.8,0.1,1.1,0.4c0.3,0.3,0.4,0.6,0.4,1
	c0,0.7-0.5,1.3-1.5,1.8c0.5,0.8,1,1.6,1.6,2.3c0.3-0.4,0.4-1,0.4-1.8l0-0.3h0.9c0,1-0.3,1.9-0.9,2.7c0.3,0.4,0.6,0.7,1,1H6.8z
	 M6,69.5c-0.7-0.8-1.3-1.7-1.9-2.8c-0.7,0.3-1.1,0.8-1.1,1.4c0,0.5,0.2,0.9,0.5,1.3c0.3,0.3,0.7,0.5,1.2,0.5
	C5.2,69.9,5.6,69.8,6,69.5z M4.7,66c0.7-0.3,1-0.7,1-1.2c0-0.2-0.1-0.4-0.2-0.5C5.4,64.1,5.2,64,5,64c-0.5,0-0.7,0.2-0.7,0.7
	C4.3,65.1,4.4,65.5,4.7,66z M12.5,70.5v-7h1.9c0.8,0,1.4,0.1,1.8,0.4c0.4,0.3,0.6,0.8,0.6,1.4c0,0.7-0.3,1.3-0.8,1.7
	c-0.5,0.4-1.2,0.6-2.1,0.6h-0.4v2.8H12.5z M13.5,66.9h0.4c0.6,0,1-0.1,1.4-0.4c0.3-0.3,0.5-0.7,0.5-1.1c0-0.4-0.1-0.7-0.4-0.9
	c-0.3-0.2-0.7-0.3-1.3-0.3h-0.6V66.9z M17.8,70.5v-5.1h0.9v1c0.4-0.7,0.9-1.1,1.6-1.1c0.1,0,0.2,0,0.3,0v0.9
	c-0.2-0.1-0.3-0.1-0.4-0.1c-0.6,0-1.1,0.3-1.5,1v3.4H17.8z M23.8,70.6c-0.7,0-1.3-0.2-1.8-0.7c-0.4-0.5-0.7-1.1-0.7-1.9
	c0-0.8,0.2-1.5,0.7-2c0.4-0.5,1-0.7,1.8-0.7s1.3,0.2,1.8,0.7c0.4,0.5,0.7,1.1,0.7,1.9c0,0.8-0.2,1.5-0.7,2
	C25.2,70.3,24.6,70.6,23.8,70.6z M23.8,69.9c1,0,1.5-0.7,1.5-2c0-1.3-0.5-2-1.5-2c-1,0-1.5,0.7-1.5,2c0,0.6,0.1,1.1,0.4,1.5
	C23,69.7,23.4,69.9,23.8,69.9z M27.9,70.5V66h-0.7v-0.7h0.7v-0.6c0-1.2,0.6-1.8,1.7-1.8c0.3,0,0.7,0.1,1.1,0.2v0.7
	c-0.4-0.1-0.8-0.2-1-0.2c-0.3,0-0.5,0.1-0.6,0.2c-0.1,0.1-0.2,0.4-0.2,0.8v0.7h1.3V66h-1.3v4.4H27.9z M35,70.3
	c-0.6,0.2-1.2,0.3-1.6,0.3c-0.8,0-1.4-0.2-1.8-0.8s-0.7-1.2-0.7-1.9c0-0.8,0.2-1.4,0.6-1.9c0.4-0.5,1-0.7,1.6-0.7
	c0.6,0,1.1,0.2,1.4,0.7c0.3,0.4,0.5,1.1,0.5,1.9l0,0.3h-3.2c0.1,1.2,0.7,1.8,1.8,1.8c0.4,0,0.9-0.1,1.4-0.3V70.3z M31.8,67.4h2.3
	c0-1-0.4-1.4-1.1-1.4C32.3,65.9,31.9,66.4,31.8,67.4z M36.5,70.3v-0.9c0.6,0.3,1.1,0.5,1.6,0.5c0.3,0,0.5-0.1,0.7-0.2
	c0.2-0.1,0.3-0.3,0.3-0.5c0-0.3-0.2-0.6-0.7-0.8l-0.5-0.2c-0.8-0.3-1.2-0.8-1.2-1.4c0-0.4,0.2-0.8,0.5-1.1c0.3-0.3,0.7-0.4,1.3-0.4
	c0.3,0,0.6,0,1.1,0.1l0.2,0v0.8c-0.5-0.2-0.9-0.2-1.2-0.2c-0.6,0-0.9,0.2-0.9,0.7c0,0.3,0.2,0.5,0.7,0.7l0.4,0.2
	c0.5,0.2,0.9,0.4,1.1,0.7c0.2,0.2,0.3,0.5,0.3,0.9c0,0.4-0.2,0.8-0.5,1.1c-0.4,0.3-0.8,0.4-1.4,0.4C37.6,70.6,37.1,70.5,36.5,70.3z
	 M41.4,70.3v-0.9c0.6,0.3,1.1,0.5,1.6,0.5c0.3,0,0.5-0.1,0.7-0.2c0.2-0.1,0.3-0.3,0.3-0.5c0-0.3-0.2-0.6-0.7-0.8l-0.5-0.2
	c-0.8-0.3-1.2-0.8-1.2-1.4c0-0.4,0.2-0.8,0.5-1.1c0.3-0.3,0.7-0.4,1.3-0.4c0.3,0,0.6,0,1.1,0.1l0.2,0v0.8c-0.5-0.2-0.9-0.2-1.2-0.2
	c-0.6,0-0.9,0.2-0.9,0.7c0,0.3,0.2,0.5,0.7,0.7l0.4,0.2c0.5,0.2,0.9,0.4,1.1,0.7c0.2,0.2,0.3,0.5,0.3,0.9c0,0.4-0.2,0.8-0.5,1.1
	c-0.4,0.3-0.8,0.4-1.4,0.4C42.5,70.6,42,70.5,41.4,70.3z M46.5,64.4v-0.9h0.9v0.9H46.5z M46.5,70.5v-5.1h0.9v5.1H46.5z M51.3,70.6
	c-0.7,0-1.3-0.2-1.8-0.7c-0.4-0.5-0.7-1.1-0.7-1.9c0-0.8,0.2-1.5,0.7-2c0.4-0.5,1-0.7,1.8-0.7c0.8,0,1.3,0.2,1.8,0.7
	c0.4,0.5,0.7,1.1,0.7,1.9c0,0.8-0.2,1.5-0.7,2C52.6,70.3,52,70.6,51.3,70.6z M51.3,69.9c1,0,1.5-0.7,1.5-2c0-1.3-0.5-2-1.5-2
	c-1,0-1.5,0.7-1.5,2c0,0.6,0.1,1.1,0.4,1.5C50.5,69.7,50.8,69.9,51.3,69.9z M55.2,70.5v-5.1h0.9v1c0.5-0.7,1.1-1.1,1.8-1.1
	c0.4,0,0.8,0.1,1.1,0.4c0.3,0.3,0.4,0.7,0.4,1.1v3.7h-0.9v-3.4c0-0.4-0.1-0.7-0.2-0.8C58.2,66.1,58,66,57.7,66
	c-0.6,0-1.1,0.4-1.6,1.1v3.3H55.2z M63.8,69.8c-0.6,0.5-1.1,0.8-1.6,0.8c-0.4,0-0.8-0.1-1.1-0.4c-0.3-0.3-0.4-0.6-0.4-1
	c0-0.6,0.2-1,0.7-1.3c0.5-0.3,1.1-0.5,2-0.5h0.2v-0.6c0-0.6-0.3-0.9-0.9-0.9c-0.5,0-1,0.2-1.6,0.5v-0.8c0.6-0.3,1.2-0.4,1.8-0.4
	c0.6,0,1,0.1,1.3,0.4c0.3,0.3,0.4,0.7,0.4,1.2v2.3c0,0.5,0.2,0.8,0.5,0.8c0,0,0.1,0,0.2,0l0.1,0.5c-0.2,0.1-0.4,0.2-0.7,0.2
	C64.2,70.6,63.9,70.3,63.8,69.8z M63.7,69.3V68l-0.3,0c-0.5,0-0.9,0.1-1.2,0.3c-0.3,0.2-0.5,0.4-0.5,0.8c0,0.2,0.1,0.4,0.2,0.6
	c0.2,0.2,0.3,0.2,0.6,0.2C62.9,69.8,63.3,69.7,63.7,69.3z M66.5,70.5V63h0.9v7.4H66.5z M71.9,70.3v-1c0.8,0.4,1.4,0.5,1.9,0.5
	c0.4,0,0.7-0.1,0.9-0.3s0.4-0.5,0.4-0.8c0-0.3-0.1-0.5-0.2-0.7c-0.2-0.2-0.4-0.4-0.9-0.6l-0.5-0.3c-0.6-0.3-1-0.7-1.3-1
	c-0.2-0.3-0.4-0.7-0.4-1c0-0.5,0.2-1,0.6-1.3c0.4-0.3,0.9-0.5,1.5-0.5c0.5,0,1.1,0.1,1.7,0.3v0.9c-0.7-0.3-1.3-0.4-1.6-0.4
	c-0.3,0-0.6,0.1-0.8,0.3c-0.2,0.2-0.3,0.4-0.3,0.7c0,0.2,0.1,0.4,0.2,0.6c0.2,0.2,0.5,0.4,0.9,0.6l0.5,0.3c0.6,0.3,1,0.7,1.3,1
	c0.2,0.3,0.4,0.7,0.4,1.1c0,0.6-0.2,1.1-0.7,1.5c-0.4,0.4-1,0.6-1.8,0.6C73.2,70.6,72.6,70.5,71.9,70.3z M79.8,70.5
	c-0.3,0.1-0.5,0.1-0.7,0.1c-0.5,0-0.8-0.1-1.1-0.4c-0.3-0.3-0.4-0.6-0.4-1.1v-3H77v-0.7h0.6v-0.9l0.9-0.1v1h1.3V66h-1.3v2.8
	c0,0.7,0.3,1,0.9,1c0.1,0,0.3,0,0.4-0.1V70.5z M83.8,69.8c-0.6,0.5-1.1,0.8-1.6,0.8c-0.4,0-0.8-0.1-1.1-0.4c-0.3-0.3-0.4-0.6-0.4-1
	c0-0.6,0.2-1,0.7-1.3c0.5-0.3,1.1-0.5,2-0.5h0.2v-0.6c0-0.6-0.3-0.9-0.9-0.9c-0.5,0-1,0.2-1.6,0.5v-0.8c0.6-0.3,1.2-0.4,1.8-0.4
	c0.6,0,1,0.1,1.3,0.4c0.3,0.3,0.4,0.7,0.4,1.2v2.3c0,0.5,0.2,0.8,0.5,0.8c0,0,0.1,0,0.2,0l0.1,0.5c-0.2,0.1-0.4,0.2-0.7,0.2
	C84.2,70.6,83.9,70.3,83.8,69.8z M83.7,69.3V68l-0.3,0c-0.5,0-0.9,0.1-1.2,0.3c-0.3,0.2-0.5,0.4-0.5,0.8c0,0.2,0.1,0.4,0.2,0.6
	c0.2,0.2,0.3,0.2,0.6,0.2C82.9,69.8,83.3,69.7,83.7,69.3z M86.7,70.5V66h-0.7v-0.7h0.7v-0.6c0-1.2,0.6-1.8,1.7-1.8
	c0.3,0,0.7,0.1,1.1,0.2v0.7c-0.4-0.1-0.8-0.2-1-0.2c-0.3,0-0.5,0.1-0.6,0.2c-0.1,0.1-0.2,0.4-0.2,0.8v0.7h1.3V66h-1.3v4.4H86.7z
	 M90.2,70.5V66h-0.7v-0.7h0.7v-0.6c0-1.2,0.6-1.8,1.7-1.8c0.3,0,0.7,0.1,1.1,0.2v0.7c-0.4-0.1-0.8-0.2-1-0.2c-0.3,0-0.5,0.1-0.6,0.2
	c-0.1,0.1-0.2,0.4-0.2,0.8v0.7h1.3V66h-1.3v4.4H90.2z M95.8,70.5l2.8-7h1l2.7,7h-1.1l-0.8-1.9h-3l-0.8,1.9H95.8z M97.8,67.8h2.4
	l-1.2-3L97.8,67.8z M103.1,70.3v-0.9c0.6,0.3,1.1,0.5,1.6,0.5c0.3,0,0.5-0.1,0.7-0.2s0.3-0.3,0.3-0.5c0-0.3-0.2-0.6-0.7-0.8
	l-0.5-0.2c-0.8-0.3-1.2-0.8-1.2-1.4c0-0.4,0.2-0.8,0.5-1.1c0.3-0.3,0.7-0.4,1.3-0.4c0.3,0,0.6,0,1.1,0.1l0.2,0v0.8
	c-0.5-0.2-0.9-0.2-1.2-0.2c-0.6,0-0.9,0.2-0.9,0.7c0,0.3,0.2,0.5,0.7,0.7l0.4,0.2c0.5,0.2,0.9,0.4,1.1,0.7c0.2,0.2,0.3,0.5,0.3,0.9
	c0,0.4-0.2,0.8-0.5,1.1c-0.4,0.3-0.8,0.4-1.4,0.4C104.2,70.6,103.7,70.5,103.1,70.3z M108,70.3v-0.9c0.6,0.3,1.1,0.5,1.6,0.5
	c0.3,0,0.5-0.1,0.7-0.2c0.2-0.1,0.3-0.3,0.3-0.5c0-0.3-0.2-0.6-0.7-0.8l-0.5-0.2c-0.8-0.3-1.2-0.8-1.2-1.4c0-0.4,0.2-0.8,0.5-1.1
	s0.7-0.4,1.3-0.4c0.3,0,0.6,0,1.1,0.1l0.2,0v0.8c-0.5-0.2-0.9-0.2-1.2-0.2c-0.6,0-0.9,0.2-0.9,0.7c0,0.3,0.2,0.5,0.7,0.7l0.4,0.2
	c0.5,0.2,0.9,0.4,1.1,0.7c0.2,0.2,0.3,0.5,0.3,0.9c0,0.4-0.2,0.8-0.5,1.1c-0.4,0.3-0.8,0.4-1.4,0.4C109.2,70.6,108.6,70.5,108,70.3z
	 M115.1,70.6c-0.7,0-1.3-0.2-1.8-0.7c-0.4-0.5-0.7-1.1-0.7-1.9c0-0.8,0.2-1.5,0.7-2c0.4-0.5,1-0.7,1.8-0.7c0.8,0,1.3,0.2,1.8,0.7
	c0.4,0.5,0.7,1.1,0.7,1.9c0,0.8-0.2,1.5-0.7,2C116.5,70.3,115.9,70.6,115.1,70.6z M115.2,69.9c1,0,1.5-0.7,1.5-2c0-1.3-0.5-2-1.5-2
	c-1,0-1.5,0.7-1.5,2c0,0.6,0.1,1.1,0.4,1.5C114.4,69.7,114.7,69.9,115.2,69.9z M122.6,70.3c-0.6,0.2-1.1,0.3-1.6,0.3
	c-0.7,0-1.3-0.3-1.7-0.8c-0.5-0.5-0.7-1.2-0.7-1.9c0-0.8,0.2-1.5,0.7-1.9c0.5-0.5,1.1-0.7,1.9-0.7c0.4,0,0.8,0.1,1.3,0.2v0.8
	c-0.5-0.2-1-0.2-1.3-0.2c-0.5,0-0.9,0.2-1.1,0.5c-0.3,0.4-0.4,0.8-0.4,1.4c0,0.6,0.1,1,0.4,1.4c0.3,0.4,0.7,0.5,1.2,0.5
	c0.4,0,0.9-0.1,1.3-0.3V70.3z M124,64.4v-0.9h0.9v0.9H124z M124,70.5v-5.1h0.9v5.1H124z M129.4,69.8c-0.6,0.5-1.1,0.8-1.6,0.8
	c-0.4,0-0.8-0.1-1.1-0.4c-0.3-0.3-0.4-0.6-0.4-1c0-0.6,0.2-1,0.7-1.3c0.5-0.3,1.1-0.5,2-0.5h0.2v-0.6c0-0.6-0.3-0.9-0.9-0.9
	c-0.5,0-1,0.2-1.6,0.5v-0.8c0.6-0.3,1.2-0.4,1.8-0.4c0.6,0,1,0.1,1.3,0.4c0.3,0.3,0.4,0.7,0.4,1.2v2.3c0,0.5,0.2,0.8,0.5,0.8
	c0,0,0.1,0,0.2,0l0.1,0.5c-0.2,0.1-0.4,0.2-0.7,0.2C129.8,70.6,129.6,70.3,129.4,69.8z M129.3,69.3V68l-0.3,0
	c-0.5,0-0.9,0.1-1.2,0.3c-0.3,0.2-0.5,0.4-0.5,0.8c0,0.2,0.1,0.4,0.2,0.6c0.2,0.2,0.3,0.2,0.6,0.2C128.5,69.8,128.9,69.7,129.3,69.3
	z M134.4,70.5c-0.3,0.1-0.5,0.1-0.7,0.1c-0.5,0-0.8-0.1-1.1-0.4c-0.3-0.3-0.4-0.6-0.4-1.1v-3h-0.6v-0.7h0.6v-0.9l0.9-0.1v1h1.3V66
	h-1.3v2.8c0,0.7,0.3,1,0.9,1c0.1,0,0.3,0,0.4-0.1V70.5z M135.7,64.4v-0.9h0.9v0.9H135.7z M135.7,70.5v-5.1h0.9v5.1H135.7z
	 M140.5,70.6c-0.7,0-1.3-0.2-1.8-0.7c-0.4-0.5-0.7-1.1-0.7-1.9c0-0.8,0.2-1.5,0.7-2c0.4-0.5,1-0.7,1.8-0.7c0.8,0,1.3,0.2,1.8,0.7
	c0.4,0.5,0.7,1.1,0.7,1.9c0,0.8-0.2,1.5-0.7,2C141.9,70.3,141.3,70.6,140.5,70.6z M140.6,69.9c1,0,1.5-0.7,1.5-2c0-1.3-0.5-2-1.5-2
	c-1,0-1.5,0.7-1.5,2c0,0.6,0.1,1.1,0.4,1.5C139.8,69.7,140.1,69.9,140.6,69.9z M144.5,70.5v-5.1h0.9v1c0.5-0.7,1.1-1.1,1.8-1.1
	c0.4,0,0.8,0.1,1.1,0.4c0.3,0.3,0.4,0.7,0.4,1.1v3.7h-0.9v-3.4c0-0.4-0.1-0.7-0.2-0.8c-0.1-0.2-0.3-0.2-0.6-0.2
	c-0.6,0-1.1,0.4-1.6,1.1v3.3H144.5z"/>
<path id="APSA" fill="#EC1C24" d="M89.1,38.4c-1.3-1.9-1.9-4.2-2.8-6.3L74.8,3.7c-0.2-0.4-0.6-2-1.2-2c-0.7,0-0.9,0.9-4.2,7.8
	L56.2,37.6c-1.4,3.1-4.1,2.2-4.1,3.4c0,0.3,0.2,0.6,0.5,0.6c1.4,0,2.9-0.2,4.4-0.2c1.6,0,3.1,0.2,4.7,0.2c0.7,0,1.5,0.2,1.5-0.8
	c0-1.4-3.9,0.2-3.9-3.6c0-0.7,0.2-1.5,0.4-1.9l3.6-7.7c0.6-1.2,1.6-1.2,2.6-1.2h12.2c1.6,0,1.9,0.8,2.4,2.1l1.8,4.5
	c0.6,1.5,1.7,4,1.7,5.2c0,2.1-3.3,1.5-3.3,2.9c0,0.5,0.9,0.5,1.2,0.5c1.5,0,3-0.2,4.5-0.2c2.3,0,4.6,0.2,6.8,0.2
	c0.4,0,0.8,0,0.8-0.5C94,39.7,90.8,40.9,89.1,38.4z M77.2,23.9h-11c-0.7,0-1.1-0.2-0.7-1l6.3-13.4c0.3-0.7,0.6-0.7,0.9,0l5.4,13.3
	C78.4,23.5,78.5,23.9,77.2,23.9z M124.6,13.2c0,2.2-1.7,10.6-13.5,10.6c-0.6,0-3.8-0.3-3.8-1.3c0-0.4,0.3-0.5,0.6-0.5
	c0.4,0,1.6,0.3,3.6,0.3c5.7,0,9-2.7,9-7.7c0-6.7-5.2-10.2-11.6-10.2c-1.8,0-3,0-3,1.7V34c0,7.9,5.8,5.1,5.8,6.9
	c0,0.4-0.2,0.7-1.6,0.7c-1.9,0-2.7-0.2-6-0.2c-2.6,0-4.4,0.2-6.1,0.2c-0.3,0-0.9-0.2-0.9-0.7c0-1.5,4.3,0.2,4.3-5.9V8.6
	c0-6.6-4.6-3.3-4.6-5.2c0-0.4,0.3-0.8,0.7-0.8c0.5,0,2.4,0.2,5.7,0.2c2.8,0,3.7-0.2,6.3-0.2C116.7,2.6,124.6,5,124.6,13.2z
	 M193,23.4c-1.5,0-3.4,0.1-5.7,0.3l-8.1-18.9c-0.5-1.2-1.2-3.5-2.1-3.5c-0.8,0-1.2,1.8-1.8,3.2L165,28.8c-4.5,1.6-8.7,3.7-11.7,6.1
	c0.7-1.5,1-3.1,1-4.5c0-15.2-22.6-9.1-22.6-19.5c0-5.1,4.7-7.2,9.1-7.2c4.9,0,9,2.4,10.6,7.2c0.2,0.5,0.6,1.7,1.2,1.7
	c0.6,0,0.7-0.4,0.6-0.8l-0.8-7.5c-0.1-0.6-0.3-0.8-0.7-0.8c-0.6,0-0.7,0.6-1.2,0.6c-0.8,0-2.6-2-9.3-2c-6.4,0-12.3,3.4-12.3,10.4
	c0,14.4,22.6,8.4,22.6,19.1c0,5.8-5.2,8.7-10.5,8.7c-7.7,0-11-5.7-11.7-8.3c-0.3-1.2-0.3-1.8-1.1-1.8c-0.6,0-0.8,0.6-0.6,1.7
	l1.4,7.1c0.2,1,5.3,3,9.4,3c5.6,0,9.3-1.4,11.8-3.3l0,0c0.1-0.1,0.1-0.1,0.2-0.2c0.2-0.2,0.5-0.4,0.7-0.6c2.5-2,7.3-4.5,12.9-6.8
	l-2.5,5.8c-1.6,3.7-3.1,2.3-3.1,3.5c0,0.5,0.3,0.7,0.9,0.7c0.8,0,1.6-0.2,4.3-0.2c1.2,0,2.4,0.2,3.7,0.2c0.6,0,0.8-0.2,0.8-0.7
	c0-1.3-3.6-0.2-3.6-2.8c-0.2-1.2,0.4-2.9,0.8-3.7l1.6-4c5.7-2,11.9-3.6,16.9-3.7l4,9.4c0.2,0.5,0.5,1.4,0.5,2.1c0,2-2.3,2-2.3,2.8
	c0,0.3,0.4,0.5,0.8,0.5c0.8,0,2.9-0.2,4.4-0.2c1.7,0,3.4,0.2,5.1,0.2c0.5,0,0.8-0.3,0.8-0.8c0-1.2-2.9-0.2-4.3-3.5l-4.4-10.4
	c1.1,0.2,2.1,0.5,2.9,1C198.6,31.5,201.3,23.5,193,23.4z M167.9,27.8l7.1-17.4c0.3-0.7,0.4-1.5,1-1.5c0.6,0,1,1.3,2.2,4.2l4.8,11.2
	C178.4,25,173,26.2,167.9,27.8z"/>
<path id="red_bar" fill="#EC1C24" d="M65.1,1.4L45.3,41.3c-28.4,0-43.5,0-43.5,0V1.4H65.1z"/>
   </g> 
</svg>	

